<?xml version="1.0" encoding="utf-8"?>
<!-- Generator: Adobe Illustrator 16.2.0, SVG Export Plug-In . SVG Version: 6.00 Build 0)  -->
<!DOCTYPE svg PUBLIC "-//W3C//DTD SVG 1.1//EN" "http://www.w3.org/Graphics/SVG/1.1/DTD/svg11.dtd">
<svg version="1.1" id="Слой_1" xmlns="http://www.w3.org/2000/svg" xmlns:xlink="http://www.w3.org/1999/xlink" x="0px" y="0px"
	 width="75px" height="72px" viewBox="-0.5 -1 75 72" enable-background="new -0.5 -1 75 72" xml:space="preserve">
<g>
	<path fill="#81B3D2" d="M69.854,46.71H4.051c-2.274,0-4.135,1.94-4.135,4.313v3.504c0,2.371,1.861,4.313,4.135,4.313h0.93v1.053
		c0,5.537,4.341,10.065,9.648,10.065h44.646c5.306,0,9.647-4.528,9.647-10.065V58.84h0.931c2.273,0,4.135-1.941,4.135-4.313v-3.504
		C73.988,48.65,72.128,46.71,69.854,46.71z M66.006,59.895c0,3.871-3.02,7.021-6.73,7.021H14.629c-3.711,0-6.731-3.149-6.731-7.021
		v-1.054h58.107L66.006,59.895L66.006,59.895z M71.07,54.527c0,0.688-0.557,1.271-1.217,1.271H4.051
		c-0.66,0-1.217-0.582-1.217-1.271v-3.504c0-0.688,0.558-1.271,1.217-1.271h65.803c0.66,0,1.217,0.582,1.217,1.271V54.527
		L71.07,54.527z M15.634,38.406l5.323,4.059l5.326-4.059l5.328,4.059l5.328-4.059l5.329,4.059l5.328-4.059l5.327,4.059l5.33-4.061
		l5.336,4.06l6.194-4.712l-1.721-2.459l-4.474,3.402l-5.336-4.056l-5.33,4.056l-5.327-4.057l-5.328,4.057l-5.329-4.057l-5.328,4.057
		l-5.328-4.057l-5.325,4.057l-5.323-4.057l-5.327,4.057l-4.467-3.401L4.12,37.751l6.188,4.714L15.634,38.406z M7.978,31.544h60.877
		c0.041-0.619,0.068-1.241,0.068-1.87c0-0.394-0.016-0.783-0.031-1.173C68.227,12.657,54.186,0,36.952,0
		C19.719,0,5.677,12.657,5.013,28.501c-0.017,0.39-0.032,0.78-0.032,1.173c0,0.629,0.028,1.251,0.07,1.87H7.978z M36.952,3.043
		c15.591,0,28.351,11.316,29.021,25.458H7.931C8.604,14.359,21.361,3.043,36.952,3.043z"/>
	<ellipse fill="#81B3D2" cx="36.952" cy="15.26" rx="1.944" ry="2.03"/>
	<ellipse fill="#81B3D2" cx="29.172" cy="10.23" rx="1.946" ry="2.03"/>
	<ellipse fill="#81B3D2" cx="44.732" cy="10.23" rx="1.945" ry="2.03"/>
</g>
</svg>
