<?xml version="1.0" encoding="utf-8"?>
<!-- Generator: Adobe Illustrator 16.2.0, SVG Export Plug-In . SVG Version: 6.00 Build 0)  -->
<!DOCTYPE svg PUBLIC "-//W3C//DTD SVG 1.1//EN" "http://www.w3.org/Graphics/SVG/1.1/DTD/svg11.dtd">
<svg version="1.1" id="Слой_1" xmlns="http://www.w3.org/2000/svg" xmlns:xlink="http://www.w3.org/1999/xlink" x="0px" y="0px"
	 width="75px" height="76px" viewBox="0 -2 75 76" enable-background="new 0 -2 75 76" xml:space="preserve">
<g>
	<path fill="#81B3D2" d="M69.854,50.752H4.051c-2.274,0-4.135,1.94-4.135,4.313v3.504c0,2.371,1.861,4.313,4.135,4.313h0.93v1.053
		C4.981,69.472,9.322,74,14.629,74h44.646c5.306,0,9.646-4.528,9.646-10.065v-1.053h0.932c2.272,0,4.135-1.941,4.135-4.313v-3.504
		C73.988,52.692,72.128,50.752,69.854,50.752z M66.006,63.937c0,3.871-3.02,7.021-6.73,7.021H14.629
		c-3.711,0-6.731-3.148-6.731-7.021v-1.054h58.107L66.006,63.937L66.006,63.937z M71.07,58.569c0,0.688-0.557,1.271-1.217,1.271
		H4.051c-0.66,0-1.217-0.582-1.217-1.271v-3.504c0-0.688,0.558-1.271,1.217-1.271h65.803c0.66,0,1.217,0.582,1.217,1.271V58.569
		L71.07,58.569z M15.634,42.448l5.323,4.059l5.326-4.059l5.328,4.059l5.328-4.059l5.329,4.059l5.328-4.059l5.327,4.059l5.33-4.061
		l5.336,4.06l6.194-4.712l-1.721-2.459l-4.475,3.402l-5.336-4.056l-5.33,4.056l-5.326-4.058l-5.328,4.058l-5.33-4.058l-5.328,4.058
		l-5.328-4.058l-5.325,4.058l-5.323-4.058l-5.327,4.058L5.84,39.336l-1.72,2.457l6.188,4.714L15.634,42.448z M7.978,35.586h60.877
		c0.041-0.619,0.067-1.241,0.067-1.87c0-0.394-0.016-0.783-0.03-1.173C68.227,16.699,54.186,4.042,36.952,4.042
		c-17.233,0-31.275,12.657-31.939,28.501c-0.017,0.39-0.032,0.78-0.032,1.173c0,0.629,0.028,1.251,0.07,1.87H7.978z M36.952,7.085
		c15.591,0,28.351,11.316,29.021,25.458H7.931C8.604,18.401,21.361,7.085,36.952,7.085z"/>
	<ellipse fill="#81B3D2" cx="36.952" cy="19.302" rx="1.944" ry="2.03"/>
	<ellipse fill="#81B3D2" cx="29.172" cy="14.272" rx="1.946" ry="2.03"/>
	<ellipse fill="#81B3D2" cx="44.732" cy="14.272" rx="1.945" ry="2.03"/>
</g>
</svg>
