<?xml version="1.0" encoding="utf-8"?>
<!-- Generator: Adobe Illustrator 16.2.0, SVG Export Plug-In . SVG Version: 6.00 Build 0)  -->
<!DOCTYPE svg PUBLIC "-//W3C//DTD SVG 1.1//EN" "http://www.w3.org/Graphics/SVG/1.1/DTD/svg11.dtd">
<svg version="1.1" id="Слой_1" xmlns="http://www.w3.org/2000/svg" xmlns:xlink="http://www.w3.org/1999/xlink" x="0px" y="0px"
	 width="75px" height="76px" viewBox="0 -2 75 76" enable-background="new 0 -2 75 76" xml:space="preserve">
<g>
	<path fill="#81B3D2" d="M29.656,67.033h16V43.21h-16V67.033z M32.593,46.134h10.125v17.976H32.593V46.134z"/>
	<path fill="#81B3D2" d="M72.771,41.253l2.076-2.067l-9.908-9.866V2H51.127v13.567L37.5,2L0.152,39.186l2.077,2.067l7.832-7.795
		v37.618H6.124V74h63.875v-2.924h-5.06V33.458L72.771,41.253z M62.002,71.076H12.999V30.534L37.5,6.149l24.502,24.385V71.076z
		 M62.002,26.394l-7.938-7.902V4.924h7.938V26.394L62.002,26.394z"/>
	<path fill="#81B3D2" d="M29.906,29.08c0,4.261,3.47,7.713,7.75,7.713s7.75-3.452,7.75-7.713c0-4.259-3.471-7.713-7.75-7.713
		C33.375,21.367,29.906,24.821,29.906,29.08z M37.656,24.135c2.745,0,4.969,2.214,4.969,4.945c0,2.732-2.225,4.948-4.969,4.948
		c-2.746,0-4.97-2.216-4.97-4.948C32.686,26.349,34.911,24.135,37.656,24.135z M17.061,43.21h3v3.919h-3V43.21z M22.999,43.21h3
		v3.919h-3V43.21z M17.061,49.182h3v3.92h-3V49.182z M22.999,49.182h3v3.92h-3V49.182z M48.998,43.21h3v3.919h-3V43.21z
		 M54.936,43.21h3v3.919h-3V43.21z M48.998,49.182h3v3.92h-3V49.182z M54.936,49.182h3v3.92h-3V49.182z"/>
</g>
</svg>
