<?xml version="1.0" encoding="utf-8"?>
<!-- Generator: Adobe Illustrator 16.2.0, SVG Export Plug-In . SVG Version: 6.00 Build 0)  -->
<!DOCTYPE svg PUBLIC "-//W3C//DTD SVG 1.1//EN" "http://www.w3.org/Graphics/SVG/1.1/DTD/svg11.dtd">
<svg version="1.1" id="Слой_1" xmlns="http://www.w3.org/2000/svg" xmlns:xlink="http://www.w3.org/1999/xlink" x="0px" y="0px"
	 width="46px" height="48px" viewBox="0 0 46 48" enable-background="new 0 0 46 48" xml:space="preserve">
<path fill="#82B3D3" d="M0,0v48h46V0H0z M29.763,20.504c-0.23,6.75-3.174,11.217-10.076,11.083H19.24
	c-0.41,0-4.164-0.461-4.897-1.887c2.271,0.195,3.893-0.422,4.692-1.178c-0.959-0.301-2.678-0.477-2.979-2.949
	c0.349,0.105,0.564,0.227,1.19,0.119c-1.2-0.857-2.531-1.574-2.457-3.774c0.285,0.328,1.067,0.536,1.34,0.472
	c-0.703-0.241-1.97-3.36-0.894-4.952c1.818,1.854,3.735,3.606,7.152,3.773c0.208-2.293,1.138-3.83,2.903-4.479
	c1.686-0.496,2.984,0.27,3.578,1.179c0.672-0.231,1.33-0.481,2.012-0.708c-0.014,0.686-0.328,1.332-0.857,1.768
	c0.684,0.17,1.303-0.491,1.303-0.491C31.157,19.48,30.319,20.268,29.763,20.504z"/>
</svg>
